<?xml version="1.0" encoding="utf-8"?>
<!-- Generator: Adobe Illustrator 21.1.0, SVG Export Plug-In . SVG Version: 6.00 Build 0)  -->
<svg version="1.1" id="Capa_1" xmlns="http://www.w3.org/2000/svg" xmlns:xlink="http://www.w3.org/1999/xlink" x="0px" y="0px"
	 viewBox="0 0 49.7 49.7" style="enable-background:new 0 0 49.7 49.7;" xml:space="preserve">
<style type="text/css">
	.st0{fill:#999999;}
</style>
<g>
	<g>
		<path class="st0" d="M7.7,0C3.4,0,0,3.4,0,7.5S3.4,15,7.7,15s7.7-3.4,7.7-7.5C15.4,3.4,11.9,0,7.7,0z M9.6,7.8H8.3
			c0,2,0,4.4,0,4.4H6.5c0,0,0-2.4,0-4.4H5.6V6.2h0.9v-1c0-0.7,0.3-1.8,1.9-1.8h1.4v1.5c0,0-0.8,0-1,0S8.3,5,8.3,5.3v0.9h1.4L9.6,7.8
			z"/>
	</g>
</g>
</svg>
