<?xml version="1.0" encoding="utf-8"?>
<!-- Generator: Adobe Illustrator 21.1.0, SVG Export Plug-In . SVG Version: 6.00 Build 0)  -->
<svg version="1.1" id="Capa_1" xmlns="http://www.w3.org/2000/svg" xmlns:xlink="http://www.w3.org/1999/xlink" x="0px" y="0px"
	 viewBox="0 0 49.7 49.7" style="enable-background:new 0 0 49.7 49.7;" xml:space="preserve">
<style type="text/css">
	.st0{fill:#999999;}
</style>
<g>
	<g>
		<g>
			<path class="st0" d="M8,9c0.7,0,1.5-0.6,1.5-1.5c0-0.4-0.2-0.6-0.4-0.9C8.9,6.2,8.5,6,8,6C7.5,6,7.1,6.2,6.7,6.6
				C6.5,6.9,6.5,7.1,6.5,7.5C6.4,8.4,7.1,9,8,9z"/>
			<polygon class="st0" points="11.3,5.6 11.3,4.5 11.3,4.3 11.1,4.3 9.8,4.3 9.8,5.6 			"/>
			<path class="st0" d="M8,0C3.8,0,0.4,3.4,0.4,7.5S3.8,15,8,15s7.6-3.4,7.6-7.5S12.2,0,8,0z M12.2,6.6v3.6c0,0.9-0.7,1.7-1.6,1.7
				H5.3c-0.9,0-1.6-0.8-1.6-1.7V6.6V4.9c0-0.9,0.7-1.7,1.6-1.7h5.3c0.9,0,1.6,0.8,1.6,1.7L12.2,6.6L12.2,6.6z"/>
			<path class="st0" d="M10.4,7.5c0,1.3-1.1,2.3-2.4,2.3S5.6,8.8,5.6,7.5c0-0.4,0-0.6,0.2-0.9H4.5v3.6c0,0.4,0.4,0.8,0.9,0.8h5.3
				c0.5,0,0.9-0.4,0.9-0.8V6.6h-1.5C10.2,6.9,10.4,7.3,10.4,7.5z"/>
		</g>
	</g>
</g>
</svg>
