<?xml version="1.0" encoding="utf-8"?>
<!-- Generator: Adobe Illustrator 21.1.0, SVG Export Plug-In . SVG Version: 6.00 Build 0)  -->
<svg version="1.1" id="Capa_1" xmlns="http://www.w3.org/2000/svg" xmlns:xlink="http://www.w3.org/1999/xlink" x="0px" y="0px"
	 viewBox="0 0 49.7 49.7" style="enable-background:new 0 0 49.7 49.7;" xml:space="preserve">
<style type="text/css">
	.st0{fill:#999999;}
</style>
<g>
	<g>
		<path class="st0" d="M7.7,0C3.4,0,0,3.4,0,7.5S3.4,15,7.7,15s7.7-3.4,7.7-7.5C15.4,3.4,12,0,7.7,0z M11.2,5.8c0,0.1,0,0.2,0,0.2
			c0,2.3-1.8,4.9-5.1,4.9c-1,0-1.9-0.3-2.7-0.8c0.1,0,0.3,0,0.4,0c0.8,0,1.6-0.3,2.2-0.7c-0.8,0-1.4-0.5-1.6-1.2c0.1,0,0.2,0,0.3,0
			c0.2,0,0.3,0,0.5-0.1C4.4,8.1,3.7,7.4,3.7,6.5c0,0,0,0,0,0C4,6.6,4.3,6.7,4.5,6.7C4.1,6.4,3.8,5.8,3.8,5.2c0-0.3,0.1-0.6,0.2-0.9
			c0.9,1.1,2.2,1.7,3.7,1.8c0-0.1,0-0.3,0-0.4c0-1,0.8-1.7,1.8-1.7c0.5,0,1,0.2,1.3,0.5c0.4-0.1,0.8-0.2,1.1-0.4
			c-0.1,0.4-0.4,0.8-0.8,1c0.4,0,0.7-0.1,1-0.3C11.8,5.2,11.5,5.5,11.2,5.8z"/>
	</g>
</g>
</svg>
